<svg width="90" height="72" viewBox="0 0 90 72" fill="none" xmlns="http://www.w3.org/2000/svg">
<g clip-path="url(#clip0_202_183)">
<path d="M47.7606 4.0293L86.2029 14.7925L47.7606 25.6356L10.4929 14.8316L47.7606 4.0293Z" stroke="#457EFF" stroke-width="6.23493" stroke-linecap="round" stroke-linejoin="round"/>
<path d="M10.5524 14.856C8.99329 15.1857 7.58742 16.0136 6.55204 17.2118C5.51662 18.41 4.90928 19.9118 4.8239 21.4852C4.73849 23.0586 5.17976 24.616 6.0795 25.9168C6.97924 27.2176 8.28743 28.1894 9.80192 28.682L47.7624 39.6245L86.203 28.7815" stroke="#457EFF" stroke-width="6.23493" stroke-linecap="round" stroke-linejoin="round"/>
<path d="M10.5521 28.959C8.99364 29.2892 7.58853 30.1173 6.55374 31.3153C5.51892 32.5133 4.91201 34.0147 4.82658 35.5875C4.74121 37.1604 5.18215 38.7173 6.08129 40.0178C6.98043 41.3184 8.28782 42.2903 9.80159 42.7833L47.762 53.7274L86.2027 42.8843" stroke="#457EFF" stroke-width="6.23493" stroke-linecap="round" stroke-linejoin="round"/>
<path d="M10.5521 43.2153C8.99364 43.5452 7.58853 44.3735 6.55374 45.5714C5.51892 46.7693 4.91201 48.2708 4.82658 49.8438C4.74121 51.4165 5.18215 52.9733 6.08129 54.2739C6.98043 55.5745 8.28782 56.5466 9.80159 57.0395L47.762 67.9819L86.2027 57.1405" stroke="#457EFF" stroke-width="6.23493" stroke-linecap="round" stroke-linejoin="round"/>
</g>
<defs>
<clipPath id="clip0_202_183">
<rect width="89.0704" height="71.2563" fill="white" transform="translate(0.571777 0.560059)"/>
</clipPath>
</defs>
</svg>
