<svg width="65" height="66" viewBox="0 0 65 66" fill="none" xmlns="http://www.w3.org/2000/svg">
<rect x="7.03894" y="7.94678" width="50.1485" height="50.1485" rx="10.5" stroke="#457EFF" stroke-width="3"/>
<path d="M20.3187 21.5723C21.1471 21.5723 21.8187 20.9007 21.8187 20.0723C21.8187 19.2438 21.1471 18.5723 20.3187 18.5723L20.3187 21.5723ZM5.53895 21.5723L20.3187 21.5723L20.3187 18.5723L5.53893 18.5723L5.53895 21.5723Z" fill="#457EFF"/>
<path d="M42.1235 20.0723L56.9033 20.0723" stroke="#457EFF" stroke-width="3" stroke-linecap="round"/>
<path fill-rule="evenodd" clip-rule="evenodd" d="M26.2809 18.3737C25.9021 20.456 23.743 32.1853 23.2994 34.577C22.8558 36.9688 24.757 39.1127 26.6236 39.1127C28.4902 39.1127 28.737 39.1127 29.5031 39.1127C30.2693 39.1127 31.4099 39.6711 30.9805 41.7047C30.5512 43.7383 30.1072 45.8303 29.6708 47.8062C29.2344 49.7821 31.4215 50.5789 32.3698 49.0384C33.3181 47.498 40.3983 35.7405 41.2131 34.1593C42.0279 32.5781 40.6933 30.133 38.6845 30.133C36.6757 30.133 35.8445 30.133 34.7908 30.133C33.7371 30.133 33.5892 29.3525 33.9717 27.7446C34.3541 26.1367 34.8139 24.0335 35.5249 20.9512C36.236 17.8688 33.3708 16.1946 31.8611 16.1946C30.3513 16.1946 28.7281 16.1946 28.2806 16.1946C27.833 16.1946 26.6597 16.2915 26.2809 18.3737Z" fill="#457EFF"/>
</svg>
