<svg width="18" height="25" viewBox="0 0 18 25" fill="none" xmlns="http://www.w3.org/2000/svg">
<path d="M1.21822 0.982038C1.54195 0.815337 1.90539 0.741177 2.26855 0.767716C2.63171 0.794254 2.98051 0.920463 3.27656 1.13246L17.1308 11.0283C17.3873 11.2114 17.5965 11.4531 17.7408 11.7333C17.885 12.0136 17.9603 12.3242 17.9603 12.6394C17.9603 12.9546 17.885 13.2652 17.7408 13.5454C17.5965 13.8256 17.3873 14.0673 17.1308 14.2504L3.27656 24.1463C2.98061 24.3581 2.63198 24.4842 2.26901 24.5107C1.90604 24.5373 1.54277 24.4632 1.21916 24.2967C0.895543 24.1302 0.624107 23.8777 0.434691 23.5669C0.245275 23.2562 0.145214 22.8992 0.145509 22.5352V2.7435C0.145128 2.37966 0.24505 2.02276 0.434294 1.712C0.623539 1.40125 0.894782 1.14868 1.21822 0.982038Z" fill="#457EFF"/>
</svg>
