<svg width="57" height="57" viewBox="0 0 57 57" fill="none" xmlns="http://www.w3.org/2000/svg">
<path d="M28.6087 51.5298C22.4566 51.5298 16.5565 49.0859 12.2063 44.7357C7.85617 40.3855 5.41228 34.4854 5.41228 28.3334C5.41228 22.1813 7.85617 16.2812 12.2063 11.9311C16.5565 7.58091 22.4566 5.13701 28.6087 5.13701C34.7607 5.13701 40.6608 7.58091 45.011 11.9311C49.3611 16.2812 51.805 22.1813 51.805 28.3334C51.805 34.4854 49.3611 40.3855 45.011 44.7357C40.6608 49.0859 34.7607 51.5298 28.6087 51.5298ZM28.6087 54.8435C35.6396 54.8435 42.3825 52.0505 47.3542 47.0789C52.3258 42.1073 55.1188 35.3643 55.1188 28.3334C55.1188 21.3025 52.3258 14.5595 47.3542 9.58788C42.3825 4.61627 35.6396 1.82324 28.6087 1.82324C21.5777 1.82324 14.8348 4.61627 9.86315 9.58788C4.89154 14.5595 2.09851 21.3025 2.09851 28.3334C2.09851 35.3643 4.89154 42.1073 9.86315 47.0789C14.8348 52.0505 21.5777 54.8435 28.6087 54.8435V54.8435Z" fill="#457EFF"/>
<path d="M27.6384 13.7773V30.5976H44.4587" stroke="#457EFF" stroke-width="3.23466"/>
</svg>
