<svg width="214" height="205" viewBox="0 0 214 205" fill="none" xmlns="http://www.w3.org/2000/svg">
<g opacity="0.6">
<g filter="url(#filter0_d_202_65)">
<path d="M171.494 27.8574H42.334C34.1649 27.8574 27.5425 34.4798 27.5425 42.6489V162.09C27.5425 170.259 34.1649 176.882 42.334 176.882H171.494C179.663 176.882 186.286 170.259 186.286 162.09V42.6489C186.286 34.4798 179.663 27.8574 171.494 27.8574Z" fill="white" fill-opacity="0.8" shape-rendering="crispEdges"/>
</g>
<path d="M76.1301 147.426H138.243" stroke="#E0E7F2" stroke-width="3.33096" stroke-linecap="round"/>
<path d="M63.2866 134.265H150.187" stroke="#E0E7F2" stroke-width="3.45052" stroke-linecap="round"/>
<path d="M130.877 88.6121C130.877 75.3776 120.148 64.6489 106.914 64.6489C93.6794 64.6489 82.9507 75.3776 82.9507 88.6121C82.9507 101.847 93.6794 112.575 106.914 112.575C120.148 112.575 130.877 101.847 130.877 88.6121Z" fill="#E0E7F2"/>
</g>
<defs>
<filter id="filter0_d_202_65" x="0.0384331" y="0.353374" width="213.751" height="204.033" filterUnits="userSpaceOnUse" color-interpolation-filters="sRGB">
<feFlood flood-opacity="0" result="BackgroundImageFix"/>
<feColorMatrix in="SourceAlpha" type="matrix" values="0 0 0 0 0 0 0 0 0 0 0 0 0 0 0 0 0 0 127 0" result="hardAlpha"/>
<feOffset/>
<feGaussianBlur stdDeviation="13.752"/>
<feComposite in2="hardAlpha" operator="out"/>
<feColorMatrix type="matrix" values="0 0 0 0 0 0 0 0 0 0 0 0 0 0 0 0 0 0 0.03 0"/>
<feBlend mode="normal" in2="BackgroundImageFix" result="effect1_dropShadow_202_65"/>
<feBlend mode="normal" in="SourceGraphic" in2="effect1_dropShadow_202_65" result="shape"/>
</filter>
</defs>
</svg>
