<svg width="371" height="339" viewBox="0 0 371 339" fill="none" xmlns="http://www.w3.org/2000/svg">
<path d="M168.774 338.566C209.764 338.566 242.992 333.219 242.992 326.623C242.992 320.028 209.764 314.681 168.774 314.681C127.784 314.681 94.5552 320.028 94.5552 326.623C94.5552 333.219 127.784 338.566 168.774 338.566Z" fill="#DCE1EF"/>
<circle cx="256.542" cy="216.974" r="54.6861" transform="rotate(6.91117 256.542 216.974)" fill="#457EFF"/>
<circle cx="246.88" cy="150.176" r="39.2175" transform="rotate(6.91117 246.88 150.176)" fill="#457EFF"/>
<circle cx="112.242" cy="133.857" r="30.9634" transform="rotate(6.91117 112.242 133.857)" fill="#457EFF"/>
<circle cx="89.9832" cy="187.164" r="64.1706" transform="rotate(6.91117 89.9832 187.164)" fill="#457EFF"/>
<circle cx="182.647" cy="127.058" r="73.0408" transform="rotate(6.91117 182.647 127.058)" fill="#457EFF"/>
<path d="M246.131 270.734L74.4159 249.92L130.693 179.22L255.391 194.335L246.131 270.734Z" fill="#457EFF"/>
<circle cx="144.059" cy="110.602" r="44.4749" transform="rotate(6.91117 144.059 110.602)" fill="#ECF0F6"/>
<circle cx="144.06" cy="110.603" r="43.4224" transform="rotate(6.91117 144.06 110.603)" fill="#FFFEFE"/>
<circle cx="145.088" cy="125.425" r="9.66416" transform="rotate(6.91117 145.088 125.425)" fill="#454545"/>
<path d="M213.645 200.682C212.893 210.572 202.38 219.11 192.852 218.386C183.324 217.662 172.553 206.444 173.254 197.208C173.773 190.377 184.982 186.548 194.51 187.272C204.038 187.996 214.164 193.851 213.645 200.682Z" fill="white"/>
<circle cx="273.215" cy="137.216" r="32.5421" transform="rotate(6.91117 273.215 137.216)" fill="#ECF0F6"/>
<circle cx="273.209" cy="137.212" r="31.772" transform="rotate(6.91117 273.209 137.212)" fill="#FFFEFE"/>
<circle cx="287.499" cy="136.182" r="7.85015" transform="rotate(6.91117 287.499 136.182)" fill="#454545"/>
<ellipse cx="266.247" cy="196.891" rx="13.5919" ry="7.5581" transform="rotate(6.91117 266.247 196.891)" fill="#FFC6C6"/>
<path fill-rule="evenodd" clip-rule="evenodd" d="M275.43 195.78C275.813 195.948 275.987 196.395 275.82 196.778L273.368 202.372C273.2 202.755 272.753 202.929 272.37 202.762C271.987 202.594 271.813 202.147 271.981 201.764L274.433 196.17C274.6 195.787 275.047 195.612 275.43 195.78Z" fill="black"/>
<path fill-rule="evenodd" clip-rule="evenodd" d="M278.209 196.116C278.592 196.284 278.767 196.73 278.599 197.113L276.147 202.707C275.979 203.091 275.533 203.265 275.15 203.097C274.767 202.929 274.592 202.483 274.76 202.1L277.212 196.505C277.38 196.122 277.826 195.948 278.209 196.116Z" fill="black"/>
<path fill-rule="evenodd" clip-rule="evenodd" d="M280.992 196.452C281.375 196.62 281.549 197.066 281.381 197.449L278.929 203.043C278.761 203.426 278.315 203.601 277.932 203.433C277.549 203.265 277.374 202.819 277.542 202.436L279.994 196.841C280.162 196.458 280.609 196.284 280.992 196.452Z" fill="black"/>
<ellipse cx="121.875" cy="179.336" rx="13.592" ry="7.5581" transform="rotate(10.9665 121.875 179.336)" fill="#FFC6C6"/>
<path fill-rule="evenodd" clip-rule="evenodd" d="M112.165 177.048C112.548 177.215 112.722 177.662 112.555 178.045L110.157 183.514C109.99 183.897 109.543 184.072 109.16 183.904C108.777 183.736 108.603 183.29 108.77 182.907L111.168 177.437C111.335 177.054 111.782 176.88 112.165 177.048Z" fill="black"/>
<path fill-rule="evenodd" clip-rule="evenodd" d="M114.891 177.378C115.274 177.546 115.448 177.993 115.281 178.376L112.883 183.845C112.716 184.228 112.269 184.402 111.886 184.235C111.503 184.067 111.329 183.62 111.496 183.237L113.894 177.768C114.061 177.385 114.508 177.21 114.891 177.378Z" fill="black"/>
<path fill-rule="evenodd" clip-rule="evenodd" d="M117.608 177.708C117.991 177.876 118.165 178.322 117.997 178.705L115.6 184.175C115.432 184.558 114.986 184.732 114.603 184.564C114.22 184.396 114.045 183.95 114.213 183.567L116.61 178.097C116.778 177.714 117.225 177.54 117.608 177.708Z" fill="black"/>
<path d="M303.514 220.189C307.641 221.466 313.095 221.493 321.372 228.197C329.648 234.9 333.513 242.884 336.334 249.565" stroke="#575A60" stroke-width="3.37568" stroke-linecap="round"/>
<path d="M46.0317 151.018C41.0981 145.588 31.2322 124.243 30.086 107.627C29.0892 93.1788 34.0578 77.0636 36.6225 70.1968" stroke="#404247" stroke-width="3.37568" stroke-linecap="round"/>
<circle cx="40.1573" cy="59.576" r="11.0077" transform="rotate(6.91117 40.1573 59.576)" fill="#404247"/>
<circle cx="11.0011" cy="11.0011" r="11.0011" transform="matrix(0.992734 0.12033 0.12033 -0.992734 324.597 268.087)" fill="#575A60"/>
<path fill-rule="evenodd" clip-rule="evenodd" d="M137.894 165.859C170.178 168.636 193.471 147.136 196.811 119.58C200.558 88.6637 179.422 61.8919 150.915 58.4365C122.407 54.9811 93.9972 74.1588 90.5417 102.666C87.0863 131.174 106.192 163.133 137.894 165.859ZM135.656 174.748C171.913 179.143 204.867 153.314 209.262 117.057C213.657 80.7996 187.827 47.8448 151.57 43.4501C115.313 39.0553 82.3587 64.8848 77.964 101.142C73.5692 137.399 99.3987 170.353 135.656 174.748Z" fill="#404247"/>
<path fill-rule="evenodd" clip-rule="evenodd" d="M266.51 176.097C287.513 178.643 306.977 162.826 309.522 141.823C312.068 120.82 298.67 99.0211 274.937 96.1443C248.823 92.9791 233.555 110.28 231.01 131.283C228.464 152.287 245.506 173.551 266.51 176.097ZM265.052 188.124C292.698 191.475 317.826 171.78 321.177 144.135C324.528 116.489 304.833 91.3608 277.187 88.0099C249.541 84.6589 224.413 104.354 221.062 132C217.711 159.645 237.406 184.773 265.052 188.124Z" fill="#404247"/>
<path fill-rule="evenodd" clip-rule="evenodd" d="M217.696 110.268C209.867 112.796 207.01 122.971 209.055 129.305C211.1 135.638 217.891 139.114 224.225 137.069C224.449 136.997 224.604 136.945 224.712 136.909L224.725 136.899C224.904 136.769 225.182 136.567 225.528 136.326L232.375 146.165C232.142 146.328 231.98 146.445 231.806 146.572C231.758 146.607 231.71 146.642 231.659 146.679C231.452 146.829 231.075 147.101 230.619 147.364C229.682 147.904 228.732 148.211 227.974 148.455L227.908 148.477C215.275 152.556 201.726 145.621 197.647 132.988C193.568 120.355 200.503 106.806 213.136 102.727C216.628 101.6 220.324 101.851 221.975 102.051L221.411 109.908C220.973 109.855 220.28 109.871 219.526 109.896C218.744 109.922 218.113 110.133 217.696 110.268Z" fill="#404247"/>
<path fill-rule="evenodd" clip-rule="evenodd" d="M64.3616 100.367L71.5654 101.24L62.2098 124.197L88.045 126.194L86.5872 138.221L47.3225 133.462L64.3616 100.367Z" fill="#404247"/>
<path d="M224.668 23.385L166.928 29.7954L188.912 50.9165L201.902 56.5652L224.828 66.115L262.493 65.8483L224.668 23.385Z" fill="#333539"/>
<path d="M188.085 54.2378L191.687 39.9894C195.678 39.5786 203.387 37.3933 214.983 39.7471C226.048 41.9931 234.784 49.3393 236.552 52.0181L231.428 72.6986C231.428 72.6986 222.306 64.819 210.221 60.1674C197.958 55.4474 188.085 54.2378 188.085 54.2378Z" fill="#45484F"/>
<rect x="255.683" y="61.9727" width="1.02782" height="12.1695" transform="rotate(0.273212 255.683 61.9727)" fill="#333539"/>
<path d="M254.908 76.5761L257.131 76.5867L258.573 84.3111C258.573 84.3111 256.911 85.1094 255.775 85.1104C254.616 85.1113 253.144 84.0672 253.144 84.0672L254.908 76.5761Z" fill="#333539"/>
<circle cx="256.025" cy="75.2614" r="1.90269" transform="rotate(0.273212 256.025 75.2614)" fill="#333539"/>
<path d="M166.961 29.8177L167.224 28.5094L225.101 22.4839L262.792 64.5293L262.435 65.9219L224.424 23.9799L166.961 29.8177Z" fill="#53565E"/>
</svg>
