<svg width="90" height="91" viewBox="0 0 90 91" fill="none" xmlns="http://www.w3.org/2000/svg">
<path fill-rule="evenodd" clip-rule="evenodd" d="M36.4708 35.6755C36.0864 37.7883 33.8956 49.6897 33.4455 52.1166C32.9954 54.5435 34.9245 56.7188 36.8185 56.7188C38.7125 56.7188 38.9629 56.7188 39.7403 56.7188C40.5177 56.7188 41.675 57.2855 41.2394 59.3489C40.8037 61.4123 40.3533 63.535 39.9104 65.54C39.4676 67.5449 41.6868 68.3533 42.649 66.7903C43.6112 65.2272 50.7954 53.2972 51.6221 51.6928C52.4488 50.0884 51.0947 47.6074 49.0564 47.6074C47.0182 47.6074 46.1747 47.6074 45.1056 47.6074C44.0364 47.6074 43.8864 46.8154 44.2744 45.1839C44.6624 43.5524 45.129 41.4183 45.8505 38.2908C46.5719 35.1632 43.6647 33.4644 42.1328 33.4644C40.601 33.4644 38.9539 33.4644 38.4998 33.4644C38.0457 33.4644 36.8551 33.5627 36.4708 35.6755Z" fill="#457EFF"/>
<path d="M73.9519 40.6761H71.8903V22.4279C71.8903 21.0779 71.3541 19.7832 70.3995 18.8286C69.4449 17.874 68.1502 17.3377 66.8002 17.3377H51.5297C51.3687 14.2739 50.1361 11.3642 48.0472 9.11713C45.9583 6.87008 43.1462 5.42869 40.1023 5.04494C38.3612 4.86569 36.6019 5.04752 34.9344 5.57906C33.2668 6.11059 31.7268 6.98041 30.4107 8.13413C29.0945 9.28785 28.0305 10.7007 27.2852 12.2843C26.5398 13.8679 26.1292 15.5882 26.0788 17.3377H8.26326C6.91327 17.3377 5.61856 17.874 4.66397 18.8286C3.70938 19.7832 3.1731 21.0779 3.1731 22.4279V43.2212H10.3248C12.2831 43.1643 14.1937 43.8311 15.6915 45.094C17.1892 46.357 18.169 48.1276 18.4436 50.0675C18.5427 51.1318 18.4172 52.2051 18.0752 53.2178C17.7332 54.2306 17.1824 55.1602 16.4584 55.9466C15.7469 56.7422 14.8764 57.3798 13.9032 57.8181C12.93 58.2565 11.8757 58.486 10.8083 58.4917H3.1731V80.9648C3.1731 82.3148 3.70938 83.6095 4.66397 84.5641C5.61856 85.5187 6.91327 86.055 8.26326 86.055H66.8002C68.1502 86.055 69.4449 85.5187 70.3995 84.5641C71.3541 83.6095 71.8903 82.3148 71.8903 80.9648V66.1269H74.4354C76.2216 66.1363 77.9897 65.7694 79.6248 65.0504C81.2599 64.3313 82.7253 63.276 83.9256 61.9532C85.1259 60.6305 86.0344 59.0698 86.5918 57.3728C87.1492 55.6758 87.3431 53.8804 87.1608 52.1035C86.7484 48.9083 85.1736 45.977 82.7371 43.8691C80.3006 41.7612 77.1732 40.6246 73.9519 40.6761ZM80.0855 58.4917C79.3739 59.2873 78.5035 59.9248 77.5303 60.3632C76.5571 60.8016 75.5028 61.0311 74.4354 61.0368H66.8002V80.9648H8.26326V63.5819H10.8083C12.5945 63.5912 14.3627 63.2244 15.9977 62.5053C17.6328 61.7862 19.0982 60.7309 20.2985 59.4081C21.4989 58.0854 22.4073 56.5247 22.9647 54.8277C23.5221 53.1307 23.716 51.3353 23.5338 49.5585C23.1213 46.3633 21.5465 43.4319 19.11 41.324C16.6735 39.2162 13.5461 38.0795 10.3248 38.131H8.26326V22.4279H31.169V17.7704C31.1747 16.703 31.4042 15.6487 31.8426 14.6755C32.281 13.7023 32.9185 12.8318 33.7141 12.1203C34.5005 11.3963 35.4302 10.8455 36.4429 10.5035C37.4557 10.1615 38.5289 10.036 39.5932 10.1351C41.5331 10.4097 43.3037 11.3895 44.5667 12.8872C45.8296 14.385 46.4964 16.2956 46.4395 18.2539V22.4279H66.8002V45.7663H73.9519C75.9102 45.7094 77.8208 46.3762 79.3186 47.6391C80.8163 48.9021 81.7961 50.6727 82.0707 52.6126C82.1698 53.6769 82.0442 54.7501 81.7023 55.7629C81.3603 56.7756 80.8095 57.7053 80.0855 58.4917Z" fill="#457EFF"/>
</svg>
