<svg width="495" height="610" viewBox="0 0 495 610" fill="none" xmlns="http://www.w3.org/2000/svg">
<g opacity="0.7" filter="url(#filter0_d_202_76)">
<mask id="mask0_202_76" style="mask-type:alpha" maskUnits="userSpaceOnUse" x="26" y="24" width="548" height="1123">
<path d="M552.716 24.7671H46.8865C35.561 24.7671 26.3799 33.9482 26.3799 45.2737V1126.38C26.3799 1137.71 35.561 1146.89 46.8865 1146.89H552.716C564.041 1146.89 573.222 1137.71 573.222 1126.38V45.2737C573.222 33.9482 564.041 24.7671 552.716 24.7671Z" fill="white"/>
</mask>
<g mask="url(#mask0_202_76)">
<g filter="url(#filter1_d_202_76)">
<path d="M552.716 24.7671H46.8865C35.561 24.7671 26.3799 33.9482 26.3799 45.2737V1126.38C26.3799 1137.71 35.561 1146.89 46.8865 1146.89H552.716C564.041 1146.89 573.222 1137.71 573.222 1126.38V45.2737C573.222 33.9482 564.041 24.7671 552.716 24.7671Z" fill="black"/>
</g>
<path d="M552.716 24.7671H46.8865C35.561 24.7671 26.3799 33.9482 26.3799 45.2737V1126.38C26.3799 1137.71 35.561 1146.89 46.8865 1146.89H552.716C564.041 1146.89 573.222 1137.71 573.222 1126.38V45.2737C573.222 33.9482 564.041 24.7671 552.716 24.7671Z" fill="white"/>
<path d="M121.577 177.961H175.427" stroke="#E0E7F2" stroke-width="3.45439" stroke-linecap="round"/>
<path d="M188.386 142.172H64.3214C58.6587 142.172 54.0681 146.762 54.0681 152.425V204.717C54.0681 210.38 58.6587 214.97 64.3214 214.97H188.386C194.049 214.97 198.64 210.38 198.64 204.717V152.425C198.64 146.762 194.049 142.172 188.386 142.172Z" stroke="#E0E7F2" stroke-width="1.20904"/>
<path d="M91.6221 165.55H79.2584C75.4832 165.55 72.4229 168.611 72.4229 172.386V184.75C72.4229 188.525 75.4832 191.585 79.2584 191.585H91.6221C95.3973 191.585 98.4577 188.525 98.4577 184.75V172.386C98.4577 168.611 95.3973 165.55 91.6221 165.55Z" fill="#E0E7F2"/>
<path d="M293.818 177.961H519.39" stroke="#E0E7F2" stroke-width="3.45439" stroke-linecap="round"/>
<path d="M258.044 165.55H245.681C241.906 165.55 238.845 168.611 238.845 172.386V184.75C238.845 188.525 241.906 191.585 245.681 191.585H258.044C261.82 191.585 264.88 188.525 264.88 184.75V172.386C264.88 168.611 261.82 165.55 258.044 165.55Z" fill="#E0E7F2"/>
<path d="M535.29 142.172H230.083C224.421 142.172 219.83 146.762 219.83 152.425V204.717C219.83 210.38 224.421 214.97 230.083 214.97H535.29C540.952 214.97 545.543 210.38 545.543 204.717V152.425C545.543 146.762 540.952 142.172 535.29 142.172Z" stroke="#E0E7F2" stroke-width="1.20904"/>
<path d="M57.7463 284.24H485.553" stroke="#E0E7F2" stroke-width="3.45439" stroke-linecap="round"/>
<path d="M60.3213 258.249H301.86" stroke="#E0E7F2" stroke-width="6.90878" stroke-linecap="round"/>
<path d="M191.552 328.753H72.1757C64.6254 328.753 58.5046 334.874 58.5046 342.424V452.818C58.5046 460.368 64.6254 466.489 72.1757 466.489H191.552C199.102 466.489 205.223 460.368 205.223 452.818V342.424C205.223 334.874 199.102 328.753 191.552 328.753Z" stroke="#E0E7F2" stroke-width="1.20904"/>
<path d="M101.782 436.333H162.327" stroke="#E0E7F2" stroke-width="3.45439" stroke-linecap="round"/>
<path d="M154.008 384.905C154.008 372.673 144.092 362.757 131.86 362.757C119.628 362.757 109.712 372.673 109.712 384.905C109.712 397.137 119.628 407.053 131.86 407.053C144.092 407.053 154.008 397.137 154.008 384.905Z" fill="#E0E7F2"/>
<path d="M191.552 485.976H72.1757C64.6254 485.976 58.5046 492.096 58.5046 499.647V610.04C58.5046 617.591 64.6254 623.711 72.1757 623.711H191.552C199.102 623.711 205.223 617.591 205.223 610.04V499.647C205.223 492.096 199.102 485.976 191.552 485.976Z" stroke="#E0E7F2" stroke-width="1.20904"/>
<path d="M101.788 593.556H162.333" stroke="#E0E7F2" stroke-width="3.45439" stroke-linecap="round"/>
<path d="M154.012 542.124C154.012 529.892 144.096 519.976 131.864 519.976C119.632 519.976 109.716 529.892 109.716 542.124C109.716 554.356 119.632 564.272 131.864 564.272C144.096 564.272 154.012 554.356 154.012 542.124Z" fill="#E0E7F2"/>
<path d="M361.132 328.753H241.756C234.206 328.753 228.085 334.874 228.085 342.424V452.818C228.085 460.368 234.206 466.489 241.756 466.489H361.132C368.683 466.489 374.803 460.368 374.803 452.818V342.424C374.803 334.874 368.683 328.753 361.132 328.753Z" stroke="#E0E7F2" stroke-width="1.20904"/>
<path d="M261.122 436.333H341.439" stroke="#E0E7F2" stroke-width="3.45439" stroke-linecap="round"/>
<path d="M323.592 384.905C323.592 372.673 313.676 362.757 301.444 362.757C289.212 362.757 279.296 372.673 279.296 384.905C279.296 397.137 289.212 407.053 301.444 407.053C313.676 407.053 323.592 397.137 323.592 384.905Z" fill="#E0E7F2"/>
<path d="M530.721 485.976H411.344C403.794 485.976 397.673 492.096 397.673 499.647V610.04C397.673 617.591 403.794 623.711 411.344 623.711H530.721C538.271 623.711 544.392 617.591 544.392 610.04V499.647C544.392 492.096 538.271 485.976 530.721 485.976Z" stroke="#E0E7F2" stroke-width="1.20904"/>
<path d="M430.706 593.556H511.023" stroke="#E0E7F2" stroke-width="3.45439" stroke-linecap="round"/>
<path d="M493.18 542.124C493.18 529.892 483.264 519.976 471.032 519.976C458.8 519.976 448.884 529.892 448.884 542.124C448.884 554.356 458.8 564.272 471.032 564.272C483.264 564.272 493.18 554.356 493.18 542.124Z" fill="#E0E7F2"/>
<path d="M440.869 443.34H500.767" stroke="#E0E7F2" stroke-width="3.45439" stroke-linecap="round"/>
<path d="M430.706 429.341H511.023" stroke="#E0E7F2" stroke-width="3.45439" stroke-linecap="round"/>
<path d="M493.18 384.905C493.18 372.673 483.264 362.757 471.032 362.757C458.8 362.757 448.884 372.673 448.884 384.905C448.884 397.137 458.8 407.053 471.032 407.053C483.264 407.053 493.18 397.137 493.18 384.905Z" fill="#E0E7F2"/>
<path d="M530.721 328.753H411.344C403.794 328.753 397.673 334.874 397.673 342.424V452.818C397.673 460.368 403.794 466.489 411.344 466.489H530.721C538.271 466.489 544.392 460.368 544.392 452.818V342.424C544.392 334.874 538.271 328.753 530.721 328.753Z" stroke="#E0E7F2" stroke-width="1.20904"/>
<path d="M271.284 600.563H331.183" stroke="#E0E7F2" stroke-width="3.45439" stroke-linecap="round"/>
<path d="M261.122 586.564H341.439" stroke="#E0E7F2" stroke-width="3.45439" stroke-linecap="round"/>
<path d="M323.592 542.124C323.592 529.892 313.676 519.976 301.444 519.976C289.212 519.976 279.296 529.892 279.296 542.124C279.296 554.356 289.212 564.272 301.444 564.272C313.676 564.272 323.592 554.356 323.592 542.124Z" fill="#E0E7F2"/>
<path d="M361.132 485.976H241.756C234.206 485.976 228.085 492.096 228.085 499.647V610.04C228.085 617.591 234.206 623.711 241.756 623.711H361.132C368.683 623.711 374.803 617.591 374.803 610.04V499.647C374.803 492.096 368.683 485.976 361.132 485.976Z" stroke="#E0E7F2" stroke-width="1.20904"/>
<path d="M71.6651 89.0954C82.0468 89.0954 90.4628 80.6794 90.4628 70.2977C90.4628 59.916 82.0468 51.5 71.6651 51.5C61.2834 51.5 52.8674 59.916 52.8674 70.2977C52.8674 80.6794 61.2834 89.0954 71.6651 89.0954Z" fill="#457EFF"/>
<path fill-rule="evenodd" clip-rule="evenodd" d="M66.9475 59.6205C66.6625 61.1303 65.0382 69.6346 64.7045 71.3688C64.3708 73.1029 65.801 74.6573 67.2053 74.6573C68.6095 74.6573 68.7951 74.6573 69.3714 74.6573C69.9478 74.6573 70.8059 75.0622 70.4829 76.5367C70.1599 78.0111 69.8259 79.5279 69.4976 80.9606C69.1693 82.3933 70.8146 82.9709 71.528 81.854C72.2414 80.7371 77.5677 72.2124 78.1806 71.0659C78.7935 69.9195 77.7896 68.1466 76.2784 68.1466C74.7673 68.1466 74.1419 68.1466 73.3493 68.1466C72.5566 68.1466 72.4454 67.5807 72.733 66.4149C73.0207 65.2491 73.3667 63.7241 73.9015 61.4893C74.4364 59.2545 72.281 58.0405 71.1453 58.0405C70.0096 58.0405 68.7884 58.0405 68.4517 58.0405C68.1151 58.0405 67.2324 58.1108 66.9475 59.6205Z" fill="white"/>
<path d="M26.3799 114.475H573.222" stroke="#E0E7F2" stroke-width="1.20904"/>
</g>
</g>
<defs>
<filter id="filter0_d_202_76" x="0.160753" y="0.732888" width="599.281" height="1174.56" filterUnits="userSpaceOnUse" color-interpolation-filters="sRGB">
<feFlood flood-opacity="0" result="BackgroundImageFix"/>
<feColorMatrix in="SourceAlpha" type="matrix" values="0 0 0 0 0 0 0 0 0 0 0 0 0 0 0 0 0 0 127 0" result="hardAlpha"/>
<feOffset dy="2.18493"/>
<feGaussianBlur stdDeviation="13.1096"/>
<feComposite in2="hardAlpha" operator="out"/>
<feColorMatrix type="matrix" values="0 0 0 0 0 0 0 0 0 0 0 0 0 0 0 0 0 0 0.04 0"/>
<feBlend mode="normal" in2="BackgroundImageFix" result="effect1_dropShadow_202_76"/>
<feBlend mode="normal" in="SourceGraphic" in2="effect1_dropShadow_202_76" result="shape"/>
</filter>
<filter id="filter1_d_202_76" x="-14.2847" y="-15.8975" width="628.171" height="1203.45" filterUnits="userSpaceOnUse" color-interpolation-filters="sRGB">
<feFlood flood-opacity="0" result="BackgroundImageFix"/>
<feColorMatrix in="SourceAlpha" type="matrix" values="0 0 0 0 0 0 0 0 0 0 0 0 0 0 0 0 0 0 127 0" result="hardAlpha"/>
<feOffset/>
<feGaussianBlur stdDeviation="20.3323"/>
<feColorMatrix type="matrix" values="0 0 0 0 0 0 0 0 0 0 0 0 0 0 0 0 0 0 0.2 0"/>
<feBlend mode="normal" in2="BackgroundImageFix" result="effect1_dropShadow_202_76"/>
<feBlend mode="normal" in="SourceGraphic" in2="effect1_dropShadow_202_76" result="shape"/>
</filter>
</defs>
</svg>
