<svg width="519" height="207" viewBox="0 0 519 207" fill="none" xmlns="http://www.w3.org/2000/svg">
<path fill-rule="evenodd" clip-rule="evenodd" d="M382.824 64.9713C386.167 64.9947 389.195 64.7592 389.552 64.4405C390.959 63.1877 389.765 62.1592 387.57 62.7329C386.292 63.0728 383.778 63.3082 381.979 63.2604C380.182 63.2121 378.27 63.5678 377.728 64.0471C377.123 64.5856 379.088 64.9399 382.824 64.9713Z" fill="#FFCD00"/>
<path fill-rule="evenodd" clip-rule="evenodd" d="M247.438 85.6086C247.521 86.0816 249.129 86.1951 251.013 85.8629C252.897 85.5307 254.375 84.8731 254.291 84.4001C254.208 83.9298 252.595 83.8172 250.711 84.1494C248.827 84.4816 247.355 85.1383 247.438 85.6086Z" fill="#FFCD00"/>
<path fill-rule="evenodd" clip-rule="evenodd" d="M334.579 80.524C333.921 81.4634 335.104 82.518 336.533 82.266C337.215 82.1457 337.666 81.4693 337.541 80.7611C337.314 79.4689 335.425 79.3197 334.579 80.524Z" fill="#FFCD00"/>
<path fill-rule="evenodd" clip-rule="evenodd" d="M424.623 56.6121C429.563 55.1601 431.741 53.7901 430.111 53.1448C429.676 52.9763 426.282 53.0872 422.571 53.3925C415.51 53.9713 414.594 54.6525 417.832 56.9248C419.218 57.8955 420.449 57.833 424.623 56.6121Z" fill="#FFCD00"/>
<path fill-rule="evenodd" clip-rule="evenodd" d="M327.616 82.0683C327.991 82.4871 328.83 82.739 329.481 82.6241C330.13 82.5098 330.834 81.9858 331.043 81.464C331.257 80.9227 330.455 80.683 329.179 80.9081C327.899 81.1337 327.23 81.6327 327.616 82.0683Z" fill="#FFCD00"/>
<path fill-rule="evenodd" clip-rule="evenodd" d="M267.909 80.1151C267.199 80.6934 265.517 81.0086 263.991 80.8486C261.887 80.6255 260.849 81.0455 259.119 82.8057C255.741 86.2311 257.771 86.5581 266.639 84.0191C271.001 82.7623 275.515 81.5693 276.668 81.3527C278.168 81.0776 278.455 80.7552 277.677 80.2102C275.985 79.0215 269.323 78.9572 267.909 80.1151Z" fill="#FFCD00"/>
<path fill-rule="evenodd" clip-rule="evenodd" d="M363.061 65.221C363.144 65.6939 364.176 65.909 365.355 65.7012C366.531 65.4939 367.427 64.9388 367.343 64.4659C367.26 63.9955 366.228 63.7804 365.053 63.9878C363.874 64.1956 362.978 64.7506 363.061 65.221Z" fill="#FFCD00"/>
<path fill-rule="evenodd" clip-rule="evenodd" d="M410.278 64.2259C413.701 63.9021 418.046 63.7595 419.938 63.9109C427.1 64.4921 436.853 64.6457 440.829 64.2403C443.103 64.0179 445.505 64.114 446.169 64.4633C446.832 64.8074 448.092 65.2141 448.969 65.3659C449.844 65.51 450.673 66.2672 450.809 67.0348C450.99 68.0659 451.425 68.1866 452.435 67.4915C455.061 65.672 459.137 65.6355 465.298 67.3712C468.699 68.3329 471.552 69.49 471.633 69.9475C471.714 70.4049 472.356 70.678 473.064 70.5532C473.77 70.4288 474.246 69.7478 474.122 69.0397C473.836 67.4192 474.764 67.2449 477.164 68.4765C478.227 69.0192 478.584 69.5345 477.982 69.6566C477.395 69.7735 477.027 70.494 477.16 71.2512C477.356 72.3625 476.806 72.6274 474.377 72.6027C469.894 72.5512 470.03 74.1872 474.696 76.4556C479.117 78.6019 482.558 78.3177 481.688 75.8757C480.926 73.7157 483.891 73.5472 487.275 75.554C490.739 77.608 492.388 77.4717 491.981 75.1638C491.815 74.2205 491.295 73.5209 490.824 73.6038C490.351 73.6872 489.898 73.3674 489.814 72.8893C489.663 72.0339 489.935 72.0818 495.429 73.7832C496.55 74.1291 498.65 74.5395 500.097 74.6869C502.283 74.9196 502.75 74.6827 502.866 73.2712C502.982 71.8144 503.326 71.6606 505.288 72.1647C507.111 72.6372 507.694 72.4786 508.142 71.379C508.951 69.4083 508.383 66.9902 507.05 66.727C506.42 66.5983 505.587 65.1116 505.194 63.4089C504.234 59.2532 502.161 57.788 499.991 59.7482C498.701 60.9058 498.144 61.0145 497.116 60.2899C496.083 59.5713 496.04 59.2192 496.883 58.4683C498.087 57.3953 496.974 55.7369 495.253 56.0404C494.614 56.1529 494.025 56.6939 493.942 57.2387C493.773 58.3931 484.819 57.4378 482.388 56.001C481.554 55.5192 480.055 55.4931 479.054 55.9495C477.666 56.5859 477.297 56.4617 477.499 55.4161C477.819 53.7715 472.772 53.3585 467.792 54.615C466.03 55.0669 464.056 55.1484 463.41 54.8093C462.762 54.4706 460.216 54.0294 457.754 53.8321C455.289 53.6352 452.847 53.2077 452.33 52.8859C451.811 52.5616 450.262 52.4963 448.885 52.7392C446.758 53.1142 446.574 53.3437 447.674 54.277C448.385 54.8791 449.681 55.2475 450.555 55.0934C451.431 54.939 452.941 55.6613 453.919 56.7014C455.963 58.8778 459.471 59.2932 468.684 58.4547C472.249 58.1326 475.425 58.1136 475.745 58.4169C476.891 59.5257 481.545 60.2267 484.391 59.725C485.99 59.4429 487.611 59.5649 487.996 59.9954C488.378 60.4262 489.321 60.5611 490.087 60.2928C491.005 59.9684 491.699 60.4723 492.123 61.7752C493.151 64.9328 491.867 65.6416 487.399 64.3775C484.953 63.6843 481.004 63.4746 477.642 63.8569C469.709 64.7653 462.578 64.4319 460.261 63.0497C459.007 62.3008 456.315 62.0853 452.868 62.4559C449.257 62.8423 447.006 62.6369 446.137 61.8469C445.366 61.1513 443.032 60.8035 440.475 61.0065C438.077 61.2029 431.766 61.4576 426.44 61.5679C421.119 61.6882 415.709 61.9892 414.417 62.2356C412.832 62.5417 411.993 62.2528 411.833 61.3456C411.645 60.2834 411.018 60.2156 408.902 61.0176C405.581 62.2827 403.158 63.1817 402.064 63.5557C399.776 64.3456 404.786 64.7572 410.278 64.2259Z" fill="#FFCD00"/>
<path fill-rule="evenodd" clip-rule="evenodd" d="M447.686 60.601C448.317 60.7323 449.281 60.5623 449.829 60.2233C450.375 59.879 449.858 59.7704 448.679 59.9782C447.504 60.1855 447.057 60.4641 447.686 60.601Z" fill="#FFCD00"/>
<path fill-rule="evenodd" clip-rule="evenodd" d="M351.268 58.0216C356.622 56.2969 356.653 53.997 351.31 54.9178C348.584 55.3878 347.951 55.2729 348.799 54.4573C349.612 53.6769 348.489 53.6672 344.818 54.4157C341.652 55.0645 339.218 56.056 338.435 57.0229C337.733 57.8794 337.213 58.8611 337.274 59.2048C337.456 60.236 346.855 59.4367 351.268 58.0216Z" fill="#FFCD00"/>
<path fill-rule="evenodd" clip-rule="evenodd" d="M362.313 56.796C366.023 57.7035 368.567 57.5506 370.68 56.28C372.909 54.941 370.83 54.1352 366.917 54.8251C364.824 55.1942 363.045 55.1134 362.961 54.6379C362.879 54.1701 361.844 53.9555 360.669 54.1628C357.567 54.7096 358.246 55.7918 362.313 56.796Z" fill="#FFCD00"/>
<path fill-rule="evenodd" clip-rule="evenodd" d="M332.757 58.6424C332.338 59.02 332.028 59.4958 332.064 59.7025C332.101 59.9118 332.513 60.0124 332.984 59.9294C333.457 59.8461 333.77 59.3698 333.682 58.871C333.594 58.3748 333.178 58.267 332.757 58.6424Z" fill="#FFCD00"/>
<path fill-rule="evenodd" clip-rule="evenodd" d="M409.076 56.2759C410.794 54.9283 411.107 52.6961 409.411 53.8851C408.87 54.263 407.769 54.9394 406.969 55.3896C406.038 55.9109 405.859 56.4541 406.476 56.8836C407.092 57.3131 408.032 57.0968 409.076 56.2759Z" fill="#FFCD00"/>
<path fill-rule="evenodd" clip-rule="evenodd" d="M372.425 118.325C372.507 118.793 373.346 119.047 374.289 118.881C375.23 118.715 375.934 118.189 375.852 117.721C375.769 117.25 374.928 116.999 373.987 117.165C373.043 117.331 372.342 117.855 372.425 118.325Z" fill="#FFCD00"/>
<path fill-rule="evenodd" clip-rule="evenodd" d="M345.483 118.079C344.806 118.487 344.323 119.219 344.408 119.703C344.601 120.796 345.49 120.655 346.961 119.314C348.349 118.056 347.17 117.068 345.483 118.079Z" fill="#FFCD00"/>
<mask id="mask0_212_505" style="mask-type:luminance" maskUnits="userSpaceOnUse" x="0" y="0" width="517" height="201">
<path fill-rule="evenodd" clip-rule="evenodd" d="M0.692871 87.5607L496.406 0.153212L516.287 112.909L20.5748 200.317L0.692871 87.5607Z" fill="white"/>
</mask>
<g mask="url(#mask0_212_505)">
<path fill-rule="evenodd" clip-rule="evenodd" d="M257.986 133.204C256.169 133.524 255.212 134.052 255.617 134.506C255.992 134.925 257.433 135.07 258.818 134.826C260.203 134.582 261.27 133.994 261.187 133.524C261.104 133.054 259.663 132.908 257.986 133.204Z" fill="#FFCD00"/>
<path fill-rule="evenodd" clip-rule="evenodd" d="M448.31 102.013C447.734 102.371 446.989 102.47 446.655 102.239C446.32 101.999 446.791 101.711 447.699 101.586C448.708 101.456 448.945 101.622 448.31 102.013ZM439.581 102.953C439.111 103.036 438.419 102.758 438.047 102.339C437.672 101.92 437.748 101.507 438.219 101.424C438.692 101.34 439.385 101.618 439.76 102.036C440.133 102.456 440.054 102.869 439.581 102.953ZM403.694 103.978C401.557 104.355 400.187 103.235 401.428 102.129C401.899 101.715 403.013 101.884 403.907 102.51C405.412 103.566 405.395 103.678 403.694 103.978ZM389.636 86.9667C387.321 87.4363 386.606 87.1466 387.735 86.2041C388.05 85.9379 389.135 85.8932 390.145 86.1068C391.747 86.4426 391.682 86.5528 389.636 86.9667ZM382.4 88.5038C378.882 89.4519 373.383 89.4729 375.562 88.5291C377.446 87.712 386.211 86.3582 386.3 86.8648C386.358 87.1745 384.601 87.9106 382.4 88.5038ZM333.109 121.695C330.432 122.185 327.936 122.239 327.561 121.82C327.186 121.401 327.189 120.98 327.564 120.884C327.939 120.786 329.626 120.318 331.304 119.833C333.107 119.315 335.107 119.336 336.171 119.884C337.796 120.714 337.485 120.899 333.109 121.695ZM299.052 116.324C298.362 117.309 291.902 118.56 272.311 121.506C270.18 121.826 267.593 121.786 266.556 121.422C265.521 121.051 261.385 121.26 257.364 121.879C247.705 123.369 245.926 123.523 244.61 122.968C244.003 122.716 242.935 122.851 242.235 123.265C241.4 123.772 240.883 123.562 240.723 122.652C240.589 121.895 239.901 121.379 239.196 121.504C238.49 121.628 237.832 121.296 237.739 120.767C237.62 120.095 238.857 119.765 241.746 119.69C245.768 119.588 253.748 118.21 263.252 115.983C266.121 115.312 268.854 115.232 270.688 115.775C272.282 116.248 276.718 116.26 280.541 115.799C284.367 115.343 288.006 115.25 288.637 115.589C289.789 116.217 292.619 116.214 297.274 115.58C299.105 115.326 299.603 115.537 299.052 116.324ZM216.689 88.9171C215.1 90.5749 210.883 91.5982 209.952 90.5499C209.62 90.1768 206.575 90.3167 203.186 90.8636C199.796 91.4054 196.819 91.7064 196.569 91.5293C196.059 91.1717 200.312 89.0733 201.674 89.0118C202.154 88.9883 206.05 88.6238 210.332 88.2018C217.266 87.5228 217.954 87.5988 216.689 88.9171ZM154.832 100.053C151.411 100.632 148.553 100.761 148.477 100.329C148.402 99.9027 149.226 99.3949 150.309 99.204C151.392 99.013 152.589 98.4103 152.968 97.8717C153.981 96.4246 168.355 92.8723 168.557 94.0197C168.84 95.6247 161.255 98.958 154.832 100.053ZM145.316 97.4252C144.374 98.2814 144.414 98.7354 145.543 99.9993C147.239 101.893 146.327 102.358 136.226 104.72C132.373 105.618 129.199 106.202 129.166 106.013C129.061 105.421 134.098 102.297 138.144 100.443C140.289 99.4575 142.19 98.283 142.369 97.8356C142.55 97.38 143.542 96.8694 144.577 96.6948C146.096 96.4377 146.236 96.5809 145.316 97.4252ZM209.891 68.4117C211.009 68.236 211 68.416 209.847 69.3842C209.075 70.0373 208.252 70.4355 208.015 70.2695C207.303 69.7688 208.442 68.6432 209.891 68.4117ZM213.607 66.8474C214.411 66.7057 214.644 65.8518 214.277 64.3871C213.819 62.5599 214.168 61.928 216.157 60.9671C219.351 59.4365 221.125 59.8086 220.947 61.9878C220.845 63.2343 221.311 63.7037 222.618 63.6651C223.618 63.638 224.653 64.0231 224.919 64.5198C225.558 65.7127 222.712 66.982 217.174 67.972C214.7 68.4189 212.612 68.3953 212.528 67.9224C212.445 67.452 212.928 66.9673 213.607 66.8474ZM240.149 66.8068C242.032 66.4828 242.735 66.5427 241.706 66.9346C240.678 67.3265 239.133 67.5908 238.276 67.5208C237.419 67.4507 238.264 67.1313 240.149 66.8068ZM250.817 65.9652L256.754 65.8322L252.41 67.4003C249.203 68.5548 247.676 68.7386 246.578 68.1143C243.87 66.5718 244.809 66.0919 250.817 65.9652ZM261.594 64.6401C263.931 64.1881 266.781 62.9101 268.371 61.6039C271.424 59.1095 274.008 58.3449 275.134 59.6093C275.583 60.1137 276.992 60.0198 278.679 59.3866C281.515 58.3189 282.372 58.8739 280.972 60.8769C280.421 61.6642 280.512 62.0931 281.3 62.4071C281.96 62.6745 282.458 62.0964 282.551 60.9608C282.674 59.4548 283.371 58.959 286.03 58.4901C289.746 57.8348 290.541 58.8645 287.9 60.9184C286.938 61.6609 285.985 62.663 285.778 63.1365C285.573 63.6204 283.895 64.26 282.054 64.5633C280.213 64.8667 275.136 65.7246 270.776 66.4666C266.414 67.2065 262.785 67.4787 262.712 67.0652C262.639 66.6517 261.451 66.1097 260.075 65.8646C257.759 65.4549 257.876 65.3597 261.594 64.6401ZM291.518 58.1195C293.556 56.8941 298.756 56.1131 298.914 57.0099C298.988 57.4286 297.754 58.1551 296.173 58.6311L296.178 58.6302C294.601 59.1028 292.589 59.3723 291.713 59.2257C290.191 58.9798 290.181 58.9255 291.518 58.1195ZM303.198 62.4927C306.106 61.0313 307.171 60.9022 310.719 61.5877C316.74 62.7431 316.826 63.6578 311.016 64.6822C308.215 65.1762 304.551 65.2654 302.869 64.8877L299.81 64.1933L303.198 62.4927ZM515.291 111.87C514.575 111.751 512.988 110.896 511.763 109.963C510.539 109.038 509 108.348 508.343 108.432C507.685 108.521 505.248 107.973 502.93 107.217C500.609 106.459 497.566 105.586 496.168 105.276C494.765 104.966 493.644 104.231 493.671 103.643C493.699 103.057 492.03 101.544 489.962 100.286C485.592 97.6299 485.895 95.6312 490.422 97.258C492.607 98.0451 493.709 98.024 494.64 97.1804C496.534 95.4714 495.373 94.6314 491.572 94.9553C489.698 95.1179 487.53 94.882 486.753 94.438C484.711 93.2685 483.233 93.316 475.145 94.7686C471.155 95.4882 467.442 95.8445 466.896 95.5571C466.347 95.2701 463.385 95.43 460.313 95.9131C457.12 96.4095 453.204 96.4044 451.177 95.8957C447.94 95.0835 447.742 94.8787 448.947 93.627C451.124 91.3592 449.193 91.1827 444.491 93.2296C437.983 96.0532 431.277 95.4556 430.502 91.9707C430.428 91.6241 434.297 90.7448 439.103 90.0145C445.073 89.1112 447.892 88.3581 448.001 87.6461C448.09 87.0736 447.67 86.7479 447.07 86.9097C443.512 87.9048 433.65 87.7545 432.543 86.6918C431.465 85.6587 431.12 85.693 430.069 86.9308C428.622 88.6382 415.214 91.6206 412.264 90.8937C410.668 90.5036 410.828 90.3821 413.169 90.2225C414.728 90.1156 415.947 89.7033 415.88 89.3182C415.811 88.9306 417.329 87.5064 419.249 86.1526C423.485 83.1674 424.932 81.0548 422.999 80.6816C422.273 80.5405 420.693 81.0109 419.493 81.7314C416.507 83.5077 410.826 84.4161 410.178 83.2193C409.83 82.5772 407.532 82.6013 403.5 83.2937C400.117 83.8716 397.303 84.0986 397.25 83.7989C397.104 83.0172 392.325 83.0711 382.249 83.9603C377.429 84.384 372.871 84.3801 372.125 83.9548C371.377 83.5244 368.586 83.3344 365.928 83.5233C363.27 83.7148 361.229 83.5337 361.395 83.118C361.961 81.6885 359.457 81.4799 352.604 82.3738C348.825 82.8697 345.389 83.137 344.97 82.9658C344.546 82.8006 338.831 83.366 332.26 84.2288C317.365 86.1837 313.342 86.2616 313.051 84.6127C312.887 83.6824 313.892 83.1561 316.875 82.6142C322.128 81.6533 324.22 79.2085 319.231 79.8537C307.049 81.4341 305.816 81.7235 306.475 82.8171C306.966 83.6365 306.314 84.0314 303.93 84.3743C300.742 84.8327 294.552 84.669 296.247 84.1703C296.736 84.0281 297.782 83.2067 298.574 82.3502C299.877 80.9401 299.236 80.9332 291.888 82.2688C287.416 83.0865 283.151 83.6948 282.411 83.6228C276.503 83.063 274.281 83.3695 273.53 84.8529C272.851 86.1877 271.677 86.4774 264.899 86.9665C260.582 87.2852 254.668 87.5552 251.757 87.5756C248.847 87.5904 242.405 88.2467 237.442 89.0284C228.594 90.4261 224.829 90.1547 221.603 87.8961C219.682 86.5534 220.92 85.9088 227.109 85.028C232.86 84.2138 237.481 81.936 237.913 79.7013C238.262 77.9132 234.378 78.6753 232.979 80.6726C232.124 81.8999 230.702 82.2999 225.982 82.6578C222.727 82.9041 218.14 83.4916 215.8 83.9683C212.076 84.7182 211.698 84.6462 212.831 83.4232C213.544 82.6447 214.092 81.8099 214.048 81.5618C214.005 81.3162 210.738 81.8922 206.786 82.8423C199.989 84.4778 199.497 84.482 197.516 82.8326C195.634 81.2725 195.338 81.2554 194.59 82.6504C193.942 83.8706 192.362 84.4131 187.306 85.15C177.92 86.5091 174.026 86.3083 174.175 84.4621C174.274 83.2535 173.698 83.0833 171.22 83.5868C169.53 83.9275 167.8 84.5016 167.382 84.8632C166.96 85.2253 165.448 86.001 164.018 86.5809C161.143 87.746 159.118 86.6588 161.839 85.4088C164.134 84.3539 162.919 83.2065 159.422 83.125C157.688 83.0869 156.84 82.7009 157.247 82.1388C157.619 81.6176 159.531 81.2325 161.621 81.253C163.967 81.2737 165.605 80.8942 166.076 80.2223C166.6 79.477 167.702 79.3066 169.779 79.6599C173.157 80.2288 187.893 77.8543 196.612 75.3335C202.348 73.6773 206.13 73.6793 207.876 75.346C208.386 75.8344 208.878 75.6063 209.255 74.7191C209.765 73.4994 211.34 73.2482 221.797 72.6755C233.931 72.0175 235.775 72.1827 233.99 73.7738C233.268 74.4209 233.569 74.7114 235.087 74.8383C236.236 74.9315 237.24 74.6105 237.318 74.1197C237.394 73.6267 237.838 73.3805 238.308 73.5694C240.179 74.3107 257.491 71.5514 258.518 70.3389C259.328 69.3834 259.595 69.4188 259.789 70.5172C259.924 71.2822 260.368 71.8488 260.779 71.7764C261.187 71.7044 265.02 71.6386 269.294 71.6339C273.569 71.6236 280.027 71.0258 283.647 70.3076C287.268 69.5945 290.597 69.1486 291.046 69.3174C291.497 69.4884 298.741 69.3142 307.149 68.9294C318.709 68.3968 322.978 67.8999 324.674 66.8972C326.329 65.9127 326.964 65.8273 327.093 66.5587C327.518 68.9221 347.062 68.0552 348.785 65.5958C349.508 64.5622 347.476 63.5536 345.398 63.9199C344.165 64.1373 341.908 64.165 340.386 63.9829C331.385 62.8973 329.003 62.8696 323.547 63.8156C318.11 64.7585 317.461 64.6916 316.949 63.135C316.061 60.427 319.729 58.3014 323.41 59.3925C325.991 60.1578 326.447 60.072 328.128 58.4939C329.289 57.4018 330.927 56.7665 332.506 56.8026C333.89 56.8357 335.179 56.4698 335.371 55.9909C335.873 54.738 333.053 54.0573 328.004 54.2095C325.587 54.284 323.254 54.2023 322.819 54.0338C321.189 53.3886 314.002 54.6585 312.17 55.9195C310.599 56.9986 310.068 56.9937 309.184 55.9104C308.424 54.9839 307.514 54.8566 306.103 55.4863C304.881 56.035 304.035 56.0136 303.933 55.4321C303.841 54.9126 302.494 54.7078 300.938 54.9821C299.385 55.256 297.673 55.1715 297.135 54.7974C296.597 54.4206 291.504 54.7216 285.815 55.4636C280.13 56.2103 273.095 56.8458 270.188 56.8761C262.738 56.956 258.179 57.8957 256.501 59.6998C254.324 62.0397 250.361 62.5092 249.452 60.527C248.706 58.9079 246.705 58.6104 246.136 60.0378C245.974 60.4475 244.742 60.9233 243.4 61.0985C242.059 61.2738 239.507 61.6118 237.729 61.8481C235.563 62.142 234.422 61.8796 234.278 61.0629C234.106 60.0912 233.049 60.1071 229.212 61.1381L224.365 62.4403L226.122 60.4198C227.942 58.3188 227.286 56.1829 225.209 57.4337C224.559 57.8255 223.357 57.763 222.542 57.2965C221.728 56.8377 220.879 56.7051 220.664 57.0147C220.447 57.3248 218.99 57.2858 217.428 56.935C215.516 56.5021 213.786 56.6793 212.127 57.4887C210.464 58.3042 209.412 58.4099 208.89 57.825C208.362 57.2333 207.123 57.3717 204.951 58.2744C203.21 58.997 197.259 60.4141 191.731 61.4182C181.823 63.2266 181.67 63.2241 181.331 61.3013C180.93 59.0271 178.765 59.0491 177.966 61.3351C177.277 63.3167 175.069 62.5095 175.246 60.3385C175.399 58.4543 174.203 58.2787 165.91 58.9735C158.964 59.5533 139.487 62.8917 133.764 64.4792C131.45 65.127 126.134 66.5333 121.954 67.6115C117.409 68.7806 113.875 70.1552 113.173 71.0225C112.392 71.9863 109.052 73.1321 103.215 74.4359C98.3864 75.5111 94.1223 76.8385 93.7328 77.3949C93.3501 77.9447 91.5692 78.6504 89.7808 78.9657C87.4574 79.3754 86.5901 79.9121 86.7519 80.8295C86.9797 82.1217 86.1622 82.5936 83.3473 82.7995C82.5078 82.8596 81.9062 83.3921 82.0105 83.9839C82.119 84.599 81.5906 84.4736 80.7756 83.69C79.4159 82.3869 79.0424 82.4447 72.3939 84.9841C68.5639 86.4455 64.8438 87.669 64.1232 87.7082C62.2776 87.8044 57.0422 89.94 51.4236 92.8947C48.7939 94.2724 45.6256 95.5878 44.3851 95.8065C43.1446 96.0253 41.7474 96.746 41.2838 97.4113C40.8151 98.0775 40.3801 98.3008 40.3117 97.9131C40.2438 97.528 39.6304 97.8574 38.9453 98.6417C38.1014 99.6139 37.8494 99.6957 38.1572 98.8873C38.4761 98.0663 37.9479 97.821 36.4205 98.0903C35.1102 98.3213 34.3141 98.96 34.4404 99.6759C34.7798 101.601 30.4995 103.576 28.3175 102.506C25.4988 101.119 24.2113 101.751 24.6615 104.305L25.0675 106.607L22.9901 105.042C20.2739 102.997 18.6848 103.355 17.4204 106.309C16.8512 107.63 15.5115 109.1 14.4422 109.579C12.2192 110.573 12.2066 112.225 14.4077 113.766C15.2385 114.352 16.019 115.408 16.1434 116.114C16.2683 116.822 17.2166 117.516 18.2456 117.654C19.2803 117.794 19.9825 118.104 19.811 118.356C19.404 118.934 14.6613 117.713 14.5351 116.997C14.4398 116.457 9.05603 117.721 7.11293 118.746C5.95156 119.353 6.14127 121.638 7.39323 122.134C7.85793 122.321 8.68992 123.488 9.24782 124.733C9.79963 125.973 11.356 128.014 12.7056 129.26C14.0552 130.507 15.4533 132.405 15.8107 133.48C16.442 135.383 17.647 136.112 20.8456 136.51C22.0564 136.666 22.5894 137.649 23.1362 140.75C24.0385 145.867 28.1113 155.153 30.1841 156.812C31.0531 157.509 32.888 157.881 34.2578 157.64C37.1936 157.122 40.3034 157.983 40.549 159.376C40.6442 159.917 40.0723 161.358 39.2739 162.572L37.8239 164.792L40.4382 167.936C41.8817 169.67 43.6376 170.999 44.3494 170.895C46.5794 170.56 49.3018 172.444 48.9834 174.099C48.5855 176.149 50.5866 177.72 53.0392 177.288C54.1324 177.095 55.3135 177.265 55.6715 177.663C56.3727 178.45 61.0923 177.213 64.9782 175.222C66.3179 174.538 69.5874 173.389 72.2486 172.659C77.1518 171.314 79.9149 169.394 82.9811 165.202C83.9174 163.923 85.1097 162.796 85.6318 162.704C86.1586 162.609 87.6339 161.712 88.9149 160.71C90.3429 159.59 94.0348 158.267 98.4669 157.289C102.442 156.409 108.512 154.787 111.961 153.689C115.41 152.59 124.632 149.944 132.452 147.808C145.746 144.179 146.792 144.003 148.538 145.097C150.238 146.167 151.496 145.99 162.742 143.104C169.525 141.359 175.459 139.513 175.923 139C177.412 137.352 180.737 136.272 182.04 137.015C182.771 137.43 184.624 137.266 186.432 136.624C188.153 136.015 192.147 134.687 195.306 133.682C198.462 132.673 201.21 131.615 201.41 131.329C201.61 131.044 202.688 131.629 203.806 132.631C206.077 134.661 209.823 134.464 212.503 132.174C213.799 131.061 214.241 130.983 214.705 131.786C215.02 132.335 215.826 132.691 216.493 132.574C217.16 132.456 217.524 131.894 217.302 131.328C217.002 130.549 218.846 129.99 224.633 129.078C232.163 127.895 234.577 127.712 245.544 127.465C260.257 127.14 263.677 126.799 265.629 125.458C267.189 124.378 267.792 124.322 268.546 125.167C269.34 126.061 269.807 125.99 271.394 124.74C272.469 123.9 274.15 123.367 275.272 123.52C277.091 123.759 277.146 123.888 275.98 125.104C274.882 126.249 275.429 126.451 279.928 126.55C282.797 126.617 290.865 126.444 297.86 126.173C304.857 125.898 313.148 125.617 316.294 125.552C319.439 125.48 327.706 125.043 334.668 124.572C341.628 124.099 347.924 123.81 348.654 123.929C349.388 124.042 352.958 124.007 356.587 123.839C360.217 123.678 366.146 123.419 369.762 123.269C373.376 123.122 379.486 122.815 383.328 122.585C389.888 122.193 395.729 122.069 406.206 122.111C408.636 122.125 413.549 121.815 417.122 121.42C426.129 120.439 421.959 119.853 407.616 120.088C401.321 120.188 390.416 120.32 383.381 120.38C372.245 120.47 345.073 121.379 343.111 121.724C342.729 121.792 341.814 120.967 341.075 119.893C339.928 118.225 339.956 117.761 341.27 116.736C342.114 116.067 343.948 115.243 345.342 114.893C347.004 114.48 347.668 113.91 347.267 113.24C346.479 111.929 355.727 110.829 358.879 111.859C360.316 112.33 365.605 111.765 374.847 110.154C382.444 108.825 389.424 107.984 390.358 108.275C391.291 108.566 393.887 108.644 396.127 108.441C401.425 107.975 409.906 107.972 418.811 108.438C422.736 108.647 427.775 108.664 430.013 108.48C432.249 108.296 434.486 108.307 434.989 108.514C435.493 108.71 439.807 108.786 444.578 108.672C454.616 108.443 459.797 108.555 464.845 109.101C468.852 109.54 474.795 109.737 479.571 109.59C481.296 109.537 483.624 110.088 484.739 110.808C486.02 111.646 488.001 111.909 490.1 111.528C495.15 110.622 499.27 110.642 503.296 111.576C509.108 112.933 515.651 113.549 516.141 112.791C516.39 112.404 516.009 111.994 515.291 111.87Z" fill="#FFCD00"/>
</g>
<path fill-rule="evenodd" clip-rule="evenodd" d="M432.957 121.063C432.174 120.748 429.945 120.513 428.008 120.542C425.689 120.57 424.975 120.784 425.909 121.155C426.692 121.47 428.919 121.709 430.859 121.678C433.178 121.648 433.894 121.434 432.957 121.063Z" fill="#FFCD00"/>
<path fill-rule="evenodd" clip-rule="evenodd" d="M490.258 89.2368C487.216 90.2581 486.81 90.6308 487.918 91.3815C488.659 91.8798 491.005 92.1136 493.138 91.8973C496.163 91.5824 497.021 91.186 497.051 90.0562C497.103 88.0698 494.629 87.7759 490.258 89.2368Z" fill="#FFCD00"/>
<path fill-rule="evenodd" clip-rule="evenodd" d="M462.844 123.279C460.973 123.409 460.242 123.554 461.223 123.605C462.202 123.656 463.435 123.985 463.958 124.335C464.483 124.685 465.891 124.796 467.089 124.564C470.354 123.948 467.148 122.976 462.844 123.279Z" fill="#FFCD00"/>
<path fill-rule="evenodd" clip-rule="evenodd" d="M504.996 102.547C505.333 102.78 506.072 102.679 506.649 102.324C507.285 101.93 507.044 101.759 506.041 101.899C505.132 102.019 504.661 102.31 504.996 102.547Z" fill="#FFCD00"/>
<path fill-rule="evenodd" clip-rule="evenodd" d="M480.391 123.758C477.034 123.929 476.804 124.047 478.379 124.859C479.35 125.354 481.481 125.546 483.109 125.272C487.119 124.602 485.172 123.52 480.391 123.758Z" fill="#FFCD00"/>
<path fill-rule="evenodd" clip-rule="evenodd" d="M489.554 117.101C489.14 117.174 488.937 118.001 489.103 118.945C489.393 120.591 491.187 120.97 492.154 119.592C492.689 118.832 490.675 116.903 489.554 117.101Z" fill="#FFCD00"/>
<path fill-rule="evenodd" clip-rule="evenodd" d="M472.15 115.757C471 115.96 470.126 116.503 470.207 116.963C470.374 117.911 474.702 118.427 475.303 117.573C476.073 116.47 474.202 115.395 472.15 115.757Z" fill="#FFCD00"/>
<path fill-rule="evenodd" clip-rule="evenodd" d="M448.583 121.769C446.367 121.747 444.607 122.023 444.67 122.385C444.833 123.305 446.643 123.553 451.568 123.33C456.993 123.087 454.593 121.834 448.583 121.769Z" fill="#FFCD00"/>
<path fill-rule="evenodd" clip-rule="evenodd" d="M442.819 121.891C442.041 121.618 440.49 121.27 439.374 121.139C438.257 120.998 437.407 121.257 437.486 121.701C437.633 122.539 440.675 123.06 442.949 122.627C444.087 122.416 444.072 122.331 442.819 121.891Z" fill="#FFCD00"/>
<path fill-rule="evenodd" clip-rule="evenodd" d="M510.158 97.9989C509.2 98.8553 510.439 100.79 512.161 101.123C513.704 101.429 515.006 100.563 514.798 99.3817C514.606 98.2911 511.021 97.2284 510.158 97.9989Z" fill="#FFCD00"/>
</svg>
